<svg width="57" height="57" viewBox="0 0 57 57" fill="none" xmlns="http://www.w3.org/2000/svg">
<path d="M44.8083 56.05L25.65 36.7333C24.5944 37.1556 23.5257 37.4722 22.4438 37.6833C21.3618 37.8944 20.2139 38 19 38C13.7222 38 9.23611 36.1528 5.54167 32.4583C1.84722 28.7639 0 24.2778 0 19C0 17.1 0.263889 15.2924 0.791667 13.5771C1.31944 11.8618 2.05833 10.2389 3.00833 8.70833L14.5667 20.2667L20.2667 14.5667L8.70833 3.00833C10.2389 2.05833 11.8618 1.31944 13.5771 0.791667C15.2924 0.263889 17.1 0 19 0C24.2778 0 28.7639 1.84722 32.4583 5.54167C36.1528 9.23611 38 13.7222 38 19C38 20.2139 37.8944 21.3618 37.6833 22.4438C37.4722 23.5257 37.1556 24.5944 36.7333 25.65L56.05 44.8083C56.6833 45.4417 57 46.2069 57 47.1042C57 48.0014 56.6833 48.7667 56.05 49.4L49.4 56.05C48.7667 56.6833 48.0014 57 47.1042 57C46.2069 57 45.4417 56.6833 44.8083 56.05ZM47.1042 49.3208L49.2417 47.1833L28.975 26.9167C29.925 25.8611 30.6111 24.634 31.0333 23.2354C31.4556 21.8368 31.6667 20.425 31.6667 19C31.6667 15.8333 30.6507 13.0757 28.6188 10.7271C26.5868 8.37847 24.0667 6.96667 21.0583 6.49167L26.9167 12.35C27.55 12.9833 27.8667 13.7222 27.8667 14.5667C27.8667 15.4111 27.55 16.15 26.9167 16.7833L16.7833 26.9167C16.15 27.55 15.4111 27.8667 14.5667 27.8667C13.7222 27.8667 12.9833 27.55 12.35 26.9167L6.49167 21.0583C6.96667 24.0667 8.37847 26.5868 10.7271 28.6188C13.0757 30.6507 15.8333 31.6667 19 31.6667C20.3722 31.6667 21.7444 31.4556 23.1167 31.0333C24.4889 30.6111 25.7292 29.9514 26.8375 29.0542L47.1042 49.3208Z" fill="#1C1B1F"/>
</svg>
