<svg width="20" height="20" viewBox="0 0 20 20" fill="none" xmlns="http://www.w3.org/2000/svg">
<mask id="mask0_298_1540" style="mask-type:alpha" maskUnits="userSpaceOnUse" x="0" y="0" width="20" height="20">
<rect width="20" height="20" fill="#D9D9D9"/>
</mask>
<g mask="url(#mask0_298_1540)">
<path d="M16.5989 12.9998C14.8655 12.9998 13.1529 12.6908 11.4611 12.0729C9.76934 11.455 8.2301 10.5791 6.8434 9.44536C5.4567 8.31157 4.38547 7.05307 3.62972 5.66985C2.87397 4.28663 2.49609 2.8864 2.49609 1.46917C2.49609 1.26509 2.5793 1.09502 2.7457 0.958964C2.9121 0.82291 3.12011 0.754883 3.36972 0.754883H6.7394C6.93354 0.754883 7.10688 0.808738 7.25941 0.916447C7.41195 1.02416 7.50209 1.15171 7.52982 1.2991L8.07063 3.68005C8.09837 3.86146 8.09143 4.01452 8.04983 4.13924C8.00823 4.26395 7.93196 4.37166 7.82103 4.46237L5.80338 6.12903C6.08072 6.54853 6.41006 6.95386 6.7914 7.34502C7.17275 7.73618 7.59222 8.11316 8.04983 8.47597C8.47971 8.82745 8.93039 9.15341 9.40187 9.45386C9.87335 9.75432 10.3726 10.0293 10.8995 10.2787L12.8548 8.68005C12.9796 8.57801 13.1425 8.50148 13.3436 8.45046C13.5446 8.39944 13.7422 8.38527 13.9364 8.40794L16.8069 8.88413C17.001 8.92949 17.1605 9.01169 17.2853 9.13073C17.4101 9.24978 17.4725 9.383 17.4725 9.53039V12.2855C17.4725 12.4896 17.3893 12.6596 17.2229 12.7957C17.0565 12.9318 16.8485 12.9998 16.5989 12.9998ZM5.01296 4.83652L6.38579 3.71407L6.03218 2.11543H4.18094C4.25027 2.58028 4.34734 3.03946 4.47214 3.49298C4.59695 3.94649 4.77722 4.39434 5.01296 4.83652ZM12.4595 10.925C13.0004 11.1177 13.5516 11.2708 14.1132 11.3841C14.6748 11.4975 15.2399 11.5712 15.8084 11.6052V10.1086L13.8532 9.7855L12.4595 10.925Z" fill="#1C1B1F"/>
</g>
</svg>
