<svg width="20" height="18" viewBox="0 0 20 18" fill="none" xmlns="http://www.w3.org/2000/svg">
<mask id="mask0_298_1545" style="mask-type:alpha" maskUnits="userSpaceOnUse" x="0" y="0" width="20" height="20">
<rect width="20" height="20" fill="#D9D9D9"/>
</mask>
<g mask="url(#mask0_298_1545)">
<path d="M9.98429 8.16307C10.4419 8.16307 10.8336 8.02985 11.1595 7.76341C11.4854 7.49697 11.6483 7.17668 11.6483 6.80253C11.6483 6.42838 11.4854 6.10808 11.1595 5.84164C10.8336 5.5752 10.4419 5.44198 9.98429 5.44198C9.52668 5.44198 9.13494 5.5752 8.80906 5.84164C8.48319 6.10808 8.32025 6.42838 8.32025 6.80253C8.32025 7.17668 8.48319 7.49697 8.80906 7.76341C9.13494 8.02985 9.52668 8.16307 9.98429 8.16307ZM9.98429 13.1631C11.6761 11.8932 12.931 10.7396 13.7492 9.70219C14.5673 8.66477 14.9764 7.74357 14.9764 6.93858C14.9764 5.70275 14.4945 4.69085 13.5308 3.90287C12.567 3.11489 11.3849 2.7209 9.98429 2.7209C8.58372 2.7209 7.40156 3.11489 6.4378 3.90287C5.47405 4.69085 4.99217 5.70275 4.99217 6.93858C4.99217 7.74357 5.40124 8.66477 6.2194 9.70219C7.03755 10.7396 8.29252 11.8932 9.98429 13.1631ZM9.98429 14.9658C7.7517 13.4125 6.08419 11.9698 4.98177 10.6376C3.87934 9.30536 3.32812 8.07237 3.32812 6.93858C3.32812 5.2379 3.99721 3.88303 5.33538 2.87396C6.67354 1.86489 8.22318 1.36035 9.98429 1.36035C11.7454 1.36035 13.295 1.86489 14.6332 2.87396C15.9714 3.88303 16.6405 5.2379 16.6405 6.93858C16.6405 8.07237 16.0892 9.30536 14.9868 10.6376C13.8844 11.9698 12.2169 13.4125 9.98429 14.9658Z" fill="#1C1B1F"/>
</g>
</svg>
