<svg width="21" height="21" viewBox="0 0 21 21" fill="none" xmlns="http://www.w3.org/2000/svg">
<mask id="mask0_298_1458" style="mask-type:alpha" maskUnits="userSpaceOnUse" x="0" y="0" width="21" height="21">
<rect width="20.5876" height="20.5876" fill="#D9D9D9"/>
</mask>
<g mask="url(#mask0_298_1458)">
<path d="M10.2937 10.2935C10.7655 10.2935 11.1694 10.1255 11.5053 9.78952C11.8413 9.45355 12.0093 9.04966 12.0093 8.57786C12.0093 8.10606 11.8413 7.70217 11.5053 7.36619C11.1694 7.03022 10.7655 6.86223 10.2937 6.86223C9.82188 6.86223 9.41799 7.03022 9.08201 7.36619C8.74604 7.70217 8.57805 8.10606 8.57805 8.57786C8.57805 9.04966 8.74604 9.45355 9.08201 9.78952C9.41799 10.1255 9.82188 10.2935 10.2937 10.2935ZM10.2937 16.5984C12.0379 14.9972 13.3318 13.5425 14.1753 12.2343C15.0188 10.9261 15.4406 9.7645 15.4406 8.74942C15.4406 7.19106 14.9438 5.91506 13.9501 4.92142C12.9565 3.92778 11.7377 3.43096 10.2937 3.43096C8.84969 3.43096 7.63088 3.92778 6.63724 4.92142C5.6436 5.91506 5.14678 7.19106 5.14678 8.74942C5.14678 9.7645 5.56854 10.9261 6.41206 12.2343C7.25558 13.5425 8.54945 14.9972 10.2937 16.5984ZM10.2937 18.8716C7.99187 16.913 6.27267 15.0937 5.13606 13.4138C3.99946 11.7339 3.43115 10.1791 3.43115 8.74942C3.43115 6.60488 4.12098 4.8964 5.50063 3.62397C6.88029 2.35155 8.47797 1.71533 10.2937 1.71533C12.1094 1.71533 13.7071 2.35155 15.0867 3.62397C16.4664 4.8964 17.1562 6.60488 17.1562 8.74942C17.1562 10.1791 16.5879 11.7339 15.4513 13.4138C14.3147 15.0937 12.5955 16.913 10.2937 18.8716Z" fill="#BFBFBF"/>
</g>
</svg>
