<svg width="20" height="20" viewBox="0 0 20 20" fill="none" xmlns="http://www.w3.org/2000/svg">
<mask id="mask0_298_1463" style="mask-type:alpha" maskUnits="userSpaceOnUse" x="0" y="0" width="20" height="20">
<rect width="20" height="20" fill="#D9D9D9"/>
</mask>
<g mask="url(#mask0_298_1463)">
<path d="M3.33317 14.166C2.87484 14.166 2.48248 14.0028 2.15609 13.6764C1.8297 13.35 1.6665 12.9577 1.6665 12.4993V5.95768C1.6665 5.74935 1.72553 5.54449 1.84359 5.3431C1.96164 5.14171 2.12484 4.98546 2.33317 4.87435L8.74984 1.66602L15.0415 4.87435C15.2082 4.95768 15.3505 5.08963 15.4686 5.27018C15.5866 5.45074 15.6665 5.63824 15.7082 5.83268H13.2707L8.74984 3.54102L3.33317 6.22851V14.166ZM5.83317 17.4993C5.37484 17.4993 4.98248 17.3362 4.65609 17.0098C4.3297 16.6834 4.1665 16.291 4.1665 15.8327V8.33268C4.1665 7.87435 4.3297 7.48199 4.65609 7.1556C4.98248 6.82921 5.37484 6.66601 5.83317 6.66601H16.6665C17.1248 6.66601 17.5172 6.82921 17.8436 7.1556C18.17 7.48199 18.3332 7.87435 18.3332 8.33268V15.8327C18.3332 16.291 18.17 16.6834 17.8436 17.0098C17.5172 17.3362 17.1248 17.4993 16.6665 17.4993H5.83317ZM11.2498 12.791L5.83317 9.99935V15.8327H16.6665V9.99935L11.2498 12.791ZM11.2498 11.1243L16.6665 8.33268H5.83317L11.2498 11.1243Z" fill="#BFBFBF"/>
</g>
</svg>
