<svg width="54" height="57" viewBox="0 0 54 57" fill="none" xmlns="http://www.w3.org/2000/svg">
<path d="M27 28.4674C23.2875 28.4674 20.1094 27.0737 17.4656 24.2862C14.8219 21.4988 13.5 18.148 13.5 14.2337C13.5 10.3194 14.8219 6.96858 17.4656 4.18115C20.1094 1.39372 23.2875 0 27 0C30.7125 0 33.8906 1.39372 36.5344 4.18115C39.1781 6.96858 40.5 10.3194 40.5 14.2337C40.5 18.148 39.1781 21.4988 36.5344 24.2862C33.8906 27.0737 30.7125 28.4674 27 28.4674ZM0 56.9348V46.9712C0 44.9548 0.492187 43.1014 1.47656 41.4112C2.46094 39.7209 3.76875 38.431 5.4 37.5414C8.8875 35.7029 12.4312 34.324 16.0312 33.4047C19.6312 32.4854 23.2875 32.0258 27 32.0258C30.7125 32.0258 34.3687 32.4854 37.9687 33.4047C41.5687 34.324 45.1125 35.7029 48.6 37.5414C50.2312 38.431 51.5391 39.7209 52.5234 41.4112C53.5078 43.1014 54 44.9548 54 46.9712V56.9348H0ZM6.75 49.8179H47.25V46.9712C47.25 46.3188 47.0953 45.7257 46.7859 45.192C46.4766 44.6582 46.0687 44.2431 45.5625 43.9465C42.525 42.3452 39.4594 41.1443 36.3656 40.3436C33.2719 39.543 30.15 39.1427 27 39.1427C23.85 39.1427 20.7281 39.543 17.6344 40.3436C14.5406 41.1443 11.475 42.3452 8.4375 43.9465C7.93125 44.2431 7.52344 44.6582 7.21406 45.192C6.90469 45.7257 6.75 46.3188 6.75 46.9712V49.8179ZM27 21.3505C28.8562 21.3505 30.4453 20.6537 31.7672 19.26C33.0891 17.8663 33.75 16.1908 33.75 14.2337C33.75 12.2766 33.0891 10.6011 31.7672 9.20742C30.4453 7.81371 28.8562 7.11685 27 7.11685C25.1437 7.11685 23.5547 7.81371 22.2328 9.20742C20.9109 10.6011 20.25 12.2766 20.25 14.2337C20.25 16.1908 20.9109 17.8663 22.2328 19.26C23.5547 20.6537 25.1437 21.3505 27 21.3505Z" fill="#1C1B1F"/>
</svg>
