<svg width="137" height="137" viewBox="0 0 137 137" fill="none" xmlns="http://www.w3.org/2000/svg">
<mask id="mask0_337_292" style="mask-type:alpha" maskUnits="userSpaceOnUse" x="0" y="0" width="137" height="137">
<rect width="137" height="137" fill="#D9D9D9"/>
</mask>
<g mask="url(#mask0_337_292)">
<path d="M39.9585 125.584C36.8189 125.584 34.1312 124.466 31.8955 122.23C29.6597 119.994 28.5418 117.307 28.5418 114.167C28.5418 111.027 29.6597 108.34 31.8955 106.104C34.1312 103.868 36.8189 102.75 39.9585 102.75C43.0981 102.75 45.7858 103.868 48.0215 106.104C50.2573 108.34 51.3752 111.027 51.3752 114.167C51.3752 117.307 50.2573 119.994 48.0215 122.23C45.7858 124.466 43.0981 125.584 39.9585 125.584ZM97.0418 125.584C93.9022 125.584 91.2146 124.466 88.9788 122.23C86.743 119.994 85.6252 117.307 85.6252 114.167C85.6252 111.027 86.743 108.34 88.9788 106.104C91.2146 103.868 93.9022 102.75 97.0418 102.75C100.181 102.75 102.869 103.868 105.105 106.104C107.341 108.34 108.458 111.027 108.458 114.167C108.458 117.307 107.341 119.994 105.105 122.23C102.869 124.466 100.181 125.584 97.0418 125.584ZM35.1064 34.2503L48.8064 62.792H88.7647L104.463 34.2503H35.1064ZM29.6835 22.8337H113.881C116.07 22.8337 117.735 23.8088 118.876 25.7592C120.018 27.7095 120.065 29.6837 119.019 31.6816L98.7543 68.2149C97.7078 70.1177 96.3045 71.5923 94.5444 72.6389C92.7844 73.6854 90.8578 74.2087 88.7647 74.2087H46.2377L39.9585 85.6253H108.458V97.042H39.9585C35.6772 97.042 32.4425 95.163 30.2543 91.405C28.0661 87.647 27.971 83.9128 29.9689 80.2024L37.6752 66.217L17.1252 22.8337H5.7085V11.417H24.2606L29.6835 22.8337Z" fill="#393737"/>
</g>
</svg>
